<svg width="18" height="18" viewBox="0 0 18 18" fill="none" xmlns="http://www.w3.org/2000/svg">
<path d="M4.60352 8.24587H5.64196V7.71599C5.64196 7.1243 5.70406 6.68268 5.82831 6.39125C5.95701 6.09982 6.19 5.86351 6.52728 5.6825C6.869 5.49703 7.29942 5.4043 7.81861 5.4043C8.35118 5.4043 8.87257 5.48379 9.38292 5.64273L9.12996 6.94098C8.83263 6.87033 8.54643 6.835 8.27131 6.835C8.00058 6.835 7.80533 6.89907 7.68546 7.0271C7.57015 7.15074 7.51244 7.39143 7.51244 7.74907V8.24587H8.91031V9.70972H7.51244V15.2802H5.64196V9.70972H4.60352V8.24587Z" fill="#040403"/>
<path d="M13.1682 8.22607H4.44336V9.85389H13.1682V8.22607Z" fill="#040403"/>
<path d="M8.66992 9.75134H9.73158V10.281C9.73158 10.8725 9.79509 11.3139 9.92216 11.6052C10.0537 11.8965 10.2919 12.1327 10.6367 12.3137C10.9861 12.4991 11.4262 12.5918 11.957 12.5918C12.5014 12.5918 13.0346 12.5123 13.5563 12.3534L13.2977 11.0557C12.9937 11.1263 12.7011 11.1616 12.4198 11.1616C12.143 11.1616 11.9434 11.0976 11.8209 10.9696C11.7029 10.846 11.644 10.6054 11.644 10.2479V9.75134H13.0731V8.28805H11.644V2.71973H9.73158V8.28805H8.66992V9.75134Z" fill="#040403"/>
</svg>
