<svg width="18" height="20" viewBox="0 0 18 20" fill="none" xmlns="http://www.w3.org/2000/svg">
<path d="M14.5 12.9288C14.5 12.6483 14.3324 12.5081 14.0157 12.5081C13.2519 12.5081 12.7675 12.105 12.7675 11.2637H14.0344C14.3324 11.2637 14.5 11.1059 14.5 10.8255V9.1779C14.5 8.89746 14.3324 8.73973 14.0344 8.73973H12.7675V2.93817C12.7675 2.65774 12.5999 2.5 12.3018 2.5H10.439C10.1408 2.5 9.97325 2.65773 9.97325 2.93817V8.73973H9.19084C9.12191 8.73973 9.05995 8.74816 9.00543 8.76459C8.94833 8.74593 8.88275 8.73633 8.80923 8.73633H7.54246C7.54246 7.89502 8.02681 7.4919 8.7906 7.4919C9.10727 7.4919 9.27497 7.35167 9.27497 7.07123V5.42367C9.27497 5.14324 9.10727 4.96796 8.80923 4.96796C6.03353 4.96796 4.74814 6.40521 4.74814 8.73633H3.96572C3.66766 8.73633 3.5 8.89406 3.5 9.1745V10.8221C3.5 11.1025 3.66766 11.2603 3.96572 11.2603H4.74814V17.0618C4.74814 17.3423 4.9158 17.5 5.21386 17.5H7.07675C7.3748 17.5 7.54246 17.3422 7.54246 17.0618V11.2603H8.80923C8.87815 11.2603 8.9401 11.2518 8.99462 11.2354C9.05172 11.2541 9.11732 11.2637 9.19084 11.2637H9.97325C9.97325 13.5948 11.2586 15.032 14.0344 15.032C14.3324 15.032 14.5 14.8568 14.5 14.5763V12.9288Z" fill="black"/>
</svg>
