<svg width="150" height="150" viewBox="0 0 150 150" fill="none" xmlns="http://www.w3.org/2000/svg">
<path d="M120.833 99.4067C120.833 97.0692 119.437 95.9008 116.798 95.9008C110.433 95.9008 106.396 92.5417 106.396 85.5308H116.953C119.437 85.5308 120.833 84.2158 120.833 81.8787V68.1492C120.833 65.8122 119.437 64.4977 116.953 64.4977H106.396V16.1514C106.396 13.8145 104.999 12.5 102.515 12.5H86.9917C84.5067 12.5 83.1105 13.8144 83.1105 16.1514V64.4977H76.5904C76.016 64.4977 75.4997 64.568 75.0453 64.7049C74.5695 64.5494 74.023 64.4694 73.4103 64.4694H62.8539C62.8539 57.4585 66.8902 54.0992 73.2551 54.0992C75.894 54.0992 77.2915 52.9306 77.2915 50.5936V36.8639C77.2915 34.527 75.894 33.0663 73.4103 33.0663C50.2795 33.0663 39.5679 45.0434 39.5679 64.4694H33.0477C30.5639 64.4694 29.1667 65.7838 29.1667 68.1208V81.8508C29.1667 84.1875 30.5639 85.5025 33.0477 85.5025H39.5679V133.848C39.5679 136.186 40.9651 137.5 43.4489 137.5H58.973C61.4567 137.5 62.8539 136.185 62.8539 133.848V85.5025H73.4103C73.9847 85.5025 74.5009 85.4317 74.9552 85.295C75.4311 85.4508 75.9777 85.5308 76.5904 85.5308H83.1105C83.1105 104.957 93.8217 116.933 116.953 116.933C119.437 116.933 120.833 115.473 120.833 113.136V99.4067Z" fill="black"/>
</svg>
