<svg width="150" height="150" viewBox="0 0 150 150" fill="none" xmlns="http://www.w3.org/2000/svg">
<path d="M133.333 103.037C133.333 100.352 131.555 99.0097 128.197 99.0097C120.096 99.0097 114.959 95.1513 114.959 87.098H128.395C131.556 87.098 133.333 85.5872 133.333 82.9027V67.1313C133.333 64.4467 131.556 62.9368 128.395 62.9368H114.959V7.40052C114.959 4.71605 113.181 3.20605 110.019 3.20605H90.2617C87.1001 3.20605 85.3226 4.71599 85.3226 7.40052V62.9368H77.0242C76.2931 62.9368 75.6359 63.0175 75.0577 63.1748C74.4521 62.9961 73.7565 62.9043 72.9767 62.9043H59.5413C59.5413 54.8507 64.6784 50.9918 72.7792 50.9918C76.1378 50.9918 77.9165 49.6493 77.9165 46.9648V31.1933C77.9165 28.5088 76.1378 26.831 72.9767 26.831C43.5375 26.831 29.9046 40.5893 29.9046 62.9043H21.6062C18.4449 62.9043 16.6667 64.4142 16.6667 67.0987V82.8706C16.6667 85.5555 18.445 87.0647 21.6062 87.0647H29.9046V142.601C29.9046 145.286 31.6828 146.795 34.844 146.795H54.6019C57.7632 146.795 59.5413 145.286 59.5413 142.601V87.0647H72.9767C73.7077 87.0647 74.3648 86.9847 74.9431 86.8272C75.5487 87.0055 76.2443 87.098 77.0242 87.098H85.3226C85.3226 109.413 98.9551 123.171 128.395 123.171C131.556 123.171 133.333 121.493 133.333 118.808V103.037Z" fill="black"/>
</svg>
