<svg width="18" height="18" viewBox="0 0 18 18" fill="none" xmlns="http://www.w3.org/2000/svg">
<path d="M14.5 11.9288C14.5 11.6483 14.3324 11.5081 14.0157 11.5081C13.2519 11.5081 12.7675 11.105 12.7675 10.2637H14.0344C14.3324 10.2637 14.5 10.1059 14.5 9.82545V8.1779C14.5 7.89746 14.3324 7.73973 14.0344 7.73973H12.7675V1.93817C12.7675 1.65774 12.5999 1.5 12.3018 1.5H10.439C10.1408 1.5 9.97325 1.65773 9.97325 1.93817V7.73973H9.19084C9.12191 7.73973 9.05995 7.74816 9.00543 7.76459C8.94833 7.74593 8.88275 7.73633 8.80923 7.73633H7.54246C7.54246 6.89502 8.02681 6.4919 8.7906 6.4919C9.10727 6.4919 9.27497 6.35167 9.27497 6.07123V4.42367C9.27497 4.14324 9.10727 3.96796 8.80923 3.96796C6.03353 3.96796 4.74814 5.40521 4.74814 7.73633H3.96572C3.66766 7.73633 3.5 7.89406 3.5 8.1745V9.8221C3.5 10.1025 3.66766 10.2603 3.96572 10.2603H4.74814V16.0618C4.74814 16.3423 4.9158 16.5 5.21386 16.5H7.07675C7.3748 16.5 7.54246 16.3422 7.54246 16.0618V10.2603H8.80923C8.87815 10.2603 8.9401 10.2518 8.99462 10.2354C9.05172 10.2541 9.11732 10.2637 9.19084 10.2637H9.97325C9.97325 12.5948 11.2586 14.032 14.0344 14.032C14.3324 14.032 14.5 13.8568 14.5 13.5763V11.9288Z" fill="black"/>
</svg>
