<svg xmlns="http://www.w3.org/2000/svg" viewBox="0 0 18 18">
  <g
     clip-path="url(#a)"
     id="g41"
     transform="matrix(1.0893738,0,0,1.0995119,-1.1109742,-0.80812734)">
    <mask
       id="b"
       width="14"
       height="18"
       x="2"
       y="0"
       maskUnits="userSpaceOnUse">
      <path
         fill="#ffffff"
         d="m 15.5,0.5 h -13 v 17 h 13 z"
         id="path25" />
    </mask>
    <g
       mask="url(#b)"
       id="g39">
      <mask
         id="c"
         width="14"
         height="18"
         x="2"
         y="0"
         maskUnits="userSpaceOnUse">
        <path
           fill="#ffffff"
           d="m 15.5,0.5 h -13 v 17 h 13 z"
           id="path28" />
      </mask>
      <g
         fill="#040403"
         mask="url(#c)"
         id="g35">
        <path
           d="M 3.459,7.963 H 4.874 V 7.271 C 4.874,6.499 4.958,5.922 5.128,5.542 5.303,5.162 5.62,4.853 6.08,4.617 6.545,4.375 7.132,4.254 7.839,4.254 c 0.725,0 1.436,0.103 2.13,0.311 L 9.626,6.26 A 5.266,5.266 0 0 0 8.456,6.121 C 8.088,6.121 7.822,6.205 7.658,6.372 7.501,6.534 7.423,6.848 7.423,7.315 V 7.963 H 9.327 V 9.874 H 7.422 v 7.272 H 4.874 V 9.874 H 3.459 v -1.91 z"
           id="path31" />
        <path
           d="M 15.128,7.938 H 3.242 v 2.125 H 15.128 V 7.937 Z"
           id="path33" />
      </g>
      <path
         fill="#040403"
         d="m 9,9.928 h 1.446 v 0.692 c 0,0.772 0.087,1.348 0.26,1.729 0.18,0.38 0.504,0.688 0.973,0.924 0.476,0.242 1.076,0.363 1.799,0.363 0.742,0 1.468,-0.103 2.179,-0.31 l -0.353,-1.695 a 5.5,5.5 0 0 1 -1.196,0.138 c -0.377,0 -0.649,-0.083 -0.816,-0.25 -0.16,-0.162 -0.24,-0.476 -0.24,-0.942 V 9.928 h 1.946 V 8.018 H 13.052 V 0.75 H 10.446 V 8.02 H 9 v 1.91 z"
         id="path37" />
    </g>
  </g>
  
</svg>
