<svg width="18" height="18" viewBox="0 0 18 18" fill="none" xmlns="http://www.w3.org/2000/svg">
<path d="M16 12.3645C16 12.0423 15.7866 11.8812 15.3836 11.8812C14.4115 11.8812 13.7951 11.4182 13.7951 10.4518H15.4074C15.7867 10.4518 16 10.2705 16 9.94836V8.05579C16 7.73364 15.7867 7.55246 15.4074 7.55246H13.7951V0.888102C13.7951 0.565965 13.5817 0.384766 13.2023 0.384766H10.8314C10.452 0.384766 10.2387 0.565958 10.2387 0.888102V7.55246H9.24289C9.15516 7.55246 9.0763 7.56214 9.00691 7.58102C8.93424 7.55957 8.85077 7.54855 8.7572 7.54855H7.14495C7.14495 6.58212 7.7614 6.11905 8.73349 6.11905C9.13653 6.11905 9.34997 5.95796 9.34997 5.63582V3.74324C9.34997 3.4211 9.13653 3.21976 8.7572 3.21976C5.22449 3.21976 3.58854 4.87075 3.58854 7.54855H2.59273C2.21338 7.54855 2 7.72974 2 8.05188V9.94451C2 10.2667 2.21339 10.4478 2.59273 10.4478H3.58854V17.1122C3.58854 17.4343 3.80193 17.6155 4.18127 17.6155H6.55222C6.93157 17.6155 7.14495 17.4343 7.14495 17.1122V10.4478H8.7572C8.84492 10.4478 8.92377 10.4382 8.99316 10.4193C9.06583 10.4407 9.14931 10.4518 9.24289 10.4518H10.2387C10.2387 13.1296 11.8746 14.7805 15.4074 14.7805C15.7867 14.7805 16 14.5792 16 14.257V12.3645Z" fill="black"/>
</svg>
